<?xml version="1.0" encoding="utf-8"?>
<!-- Generator: Adobe Illustrator 21.0.0, SVG Export Plug-In . SVG Version: 6.00 Build 0)  -->
<svg version="1.1" id="Layer_1" xmlns="http://www.w3.org/2000/svg" xmlns:xlink="http://www.w3.org/1999/xlink" x="0px" y="0px"
	 viewBox="0 0 68 68" style="enable-background:new 0 0 68 68;" xml:space="preserve">
<style type="text/css">
	.st0{fill:#C64864;}
	.st1{fill:#FFFFFF;}
</style>
<g>
	<circle class="st0" cx="34" cy="34" r="34"/>
	<g>
		<path class="st1" d="M52.6,31.6c-0.3,0-0.7-0.1-1-0.3L34,19.9L16.4,31.3c-0.8,0.5-2,0.3-2.5-0.5c-0.5-0.8-0.3-2,0.5-2.5L33,16.2
			c0.6-0.4,1.4-0.4,2,0l18.6,12.1c0.8,0.5,1.1,1.7,0.5,2.5C53.7,31.3,53.2,31.6,52.6,31.6"/>
		<path class="st1" d="M34,21.9l-14.5,9.7V33v2.5v13.7h29.1V35.5v-2.5v-1.4L34,21.9z M40,35.2h-4.2v4.2h-3.6v-4.2H28v-3.6h4.2v-4.2
			h3.6v4.2H40V35.2z"/>
	</g>
</g>
</svg>
