<?xml version="1.0" encoding="utf-8"?>
<!-- Generator: Adobe Illustrator 21.0.0, SVG Export Plug-In . SVG Version: 6.00 Build 0)  -->
<!DOCTYPE svg PUBLIC "-//W3C//DTD SVG 1.1//EN" "http://www.w3.org/Graphics/SVG/1.1/DTD/svg11.dtd">
<svg version="1.1" id="Layer_1" xmlns="http://www.w3.org/2000/svg" xmlns:xlink="http://www.w3.org/1999/xlink" x="0px" y="0px"
	 viewBox="0 0 300 300" style="enable-background:new 0 0 300 300;" xml:space="preserve">
<style type="text/css">
	.st0{fill:#159478;}
	.st1{fill:#FFFFFF;}
</style>
<circle class="st0" cx="150" cy="149.9" r="149.6" />
<path class="st1" d="M215.7,179.1v32.3c0,2.6-2.1,4.6-4.6,4.6H88.7c-2.6,0-4.6-2.1-4.6-4.6v-32.3h-4.5c-1.3,0-2.5-0.1-3.7-0.3v32.6
	c0,7.1,5.8,12.9,12.8,12.9h122.4c7.1,0,12.9-5.8,12.9-12.9v-32.6c-1.2,0.2-2.4,0.3-3.7,0.3H215.7z M126.1,86c0-4.2,3.4-7.5,7.5-7.5
	h32.6c4.2,0,7.5,3.4,7.5,7.5v2.9h8.2V86c0-8.7-7.1-15.8-15.8-15.8h-32.6c-8.7,0-15.8,7.1-15.8,15.8v2.9h8.2V86z M219.9,99.2H80
	c-7.1,0-12.8,5.8-12.8,12.9v43.8c0,7.1,5.8,12.9,12.8,12.9h19.1c-0.1-1.4-0.2-2.7-0.2-4.1c0-1.4,0.1-2.8,0.2-4.1H80
	c-2.6,0-4.6-2.1-4.6-4.6v-43.8c0-2.6,2.1-4.6,4.6-4.6h139.9c2.6,0,4.6,2.1,4.6,4.6v43.8c0,2.6-2.1,4.6-4.6,4.6h-19.1
	c0.1,1.4,0.2,2.7,0.2,4.1c0,1.4-0.1,2.8-0.2,4.1h19.1c7.1,0,12.9-5.8,12.9-12.9v-43.8C232.7,105,226.9,99.2,219.9,99.2z
	 M190.6,164.7c0-22.4-18.3-40.7-40.7-40.7s-40.7,18.3-40.7,40.7c0,22.4,18.3,40.7,40.7,40.7S190.6,187.1,190.6,164.7z M117.4,164.7
	c0-17.9,14.6-32.5,32.5-32.5c17.9,0,32.5,14.6,32.5,32.5c0,17.9-14.6,32.5-32.5,32.5C132,197.1,117.4,182.6,117.4,164.7z M154,185.6
	v-16.8h16.8v-8.2H154v-16.8h-8.2v16.8H129v8.2h16.8v16.8H154z"/>
</svg>
